<?xml version="1.0" encoding="UTF-8"?>
<svg width="2700" height="1398.2" version="1.1" viewBox="-860.47 -375.47 2700 1398.2" xmlns="http://www.w3.org/2000/svg">
    <path d="m-860.47 198.36h483.57v0.034c37.104-2.921 59.401-43.954 40.303-77.004-8.482-14.678-23.592-24.149-40.303-25.526v0.025h-187.46-1.015v-6e-3c-83.576-0.883-135.84-91.468-94.16-164.42 19.357-33.88 55.206-54.928 94.159-55.375v-7e-3h258.22v61.216h-258.22v-0.083c-36.795 0.935-59.5 41.034-40.928 73.175 8.499 14.711 24.017 23.908 40.929 24.362v-0.083h184.56 3.915v0.072c83.827 2.929 135.62 94.367 93.46 168.16-19.327 33.829-54.724 55.154-93.46 56.59v0.077h-483.57z"/>
    <path d="m-22.311-123.4c-76.263-0.00359-151.38 45.278-180.17 127.34-22.502 64.14-9.0762 135.41 35.219 186.97 55.192 64.239 138.63 80.001 208.56 55.145l84.904 169.26h61.219l-97.703-194.78c29.424-21.446 53.288-51.953 66.857-90.631 22.502-64.14 9.0753-135.41-35.221-186.97-38.774-45.13-91.488-66.333-143.67-66.336zm1.0078 57.172c37.818 0.46733 74.161 17.058 99.35 46.375 50.726 59.042 38.469 142.97-14.479 188.25l-50.709-101.09h-61.217l63.783 127.16c-4.445 1.317-9.0255 2.4246-13.73 3.3106-46.749 8.806-94.645-7.9961-125.65-44.08-66.798-77.748-24.381-198.65 76.35-217.63 8.7656-1.6511 17.572-2.4028 26.299-2.2949z"/>
    <path d="m-48.358 67.304h61.217l50.709 101.09c52.948-45.279 65.204-129.21 14.478-188.25-31.001-36.083-78.897-52.887-125.65-44.081-100.73 18.975-143.15 139.88-76.35 217.63 31.001 36.084 78.898 52.887 125.65 44.081 4.705-0.886 9.284-1.995 13.729-3.312z" fill="#ed1b76"/>
    <path d="m333.98 234.36c-59.601-34.053-96.398-97.413-96.447-166.05v-192.23h61.216v192.23h-0.043c0.112 100.13 108.53 162.7 195.3 112.63 40.272-23.238 65.081-66.173 65.136-112.63h-0.043v-443.78h61.216v443.52c0.134 146.9-158.62 239.28-286.34 166.31z"/>
    <rect x="711.3" y="-123.92" width="61.216" height="382.78" stroke-width="1.1926"/>
    <path d="m870.31-123.91v383.49h293.93v-0.03515c67.275-1.281 129.06-37.899 162.53-96.59 72.804-127.66-18.992-286.29-165.32-286.87h-0.6074-290.53zm61.217 61.215h228.45v0.072266c46.743-0.21 90.011 24.694 113.37 65.254 50.101 86.986-12.575 195.69-112.82 195.66v0.06836h-229.01v-261.06z"/>
    <path d="m244.59 1022.8-112.68-224.64h-262.41c-146.91 0.138-239.28-158.62-166.32-286.34 34.014-59.535 97.27-96.317 165.82-96.447l0.02-0.04h318.41l-30.723 61.249h-290.52c-98.351 2.279-159.15 109.38-109.59 195.27 23.238 40.272 66.174 65.082 112.63 65.137v-0.044h231.97l-48.957-97.598h-197.2v-61.216h166.5l-0.01-0.019h61.218l223.06 444.69z"/>
    <path d="m430.51 415.36-187.16 382.78h68.283l118.88-243.13 118.88 243.13h68.287z"/>
    <path d="m430.51 555.01 118.88 243.13h-237.76z" fill="#ed1b76"/>
    <path d="m1071.2 798.1v-260.7l-130.79 260.73h-61.218l9e-3 -0.018h-0.225l-130.78-260.72v260.74h-61.216v-382.78l-0.011-0.022h61.217l6e-3 0.012h4e-3v8e-3l161.5 321.96 161.5-321.96v-0.045h61.216v382.78z"/>
    <path d="m1611.4 415.36v61.216h-321.57v260.32h321.57v61.216h-382.78v-382.78h61.216v0.037z"/>
    <g stroke-width="1.3342">
        <rect x="1289.8" y="476.57" width="321.57" height="260.32" fill="#ed1b76"/>
        <rect x="1439.5" y="578.12" width="400" height="61.216"/>
    </g>
</svg>
